<?xml version="1.0" encoding="UTF-8"?>
<svg width="793.54" height="559.45" version="1.1" xmlns="http://www.w3.org/2000/svg">
 <defs>
  <clipPath id="clip_dp_001">
   <path d="m0 0h793.7v559.37h-793.7z"/>
  </clipPath>
  <clipPath id="clip_dp_002">
   <path d="m102 32.369h591v500h-591z"/>
  </clipPath>
 </defs>
 <g clip-path="url(#clip_dp_001)">
  <g clip-path="url(#clip_dp_002)">
   <g id="clip" fill="#76ab3d" stroke-width="0">
    <path d="m321.55 506.78c-1.962-1.661-1.962-141.5 0-143.16 1.962-1.661 59.908-1.661 61.87 0 1.963 1.66 1.963 141.5 0 143.16-1.962 1.66-59.908 1.66-61.87 0z"/>
    <path d="m412.74 505.81c-1.961-1.66-1.961-141.5 0-143.16 1.963-1.66 59.908-1.66 61.871 0 1.962 1.66 1.962 141.5 0 143.16-1.963 1.66-59.908 1.66-61.871 0z"/>
    <path d="m574.22 398.48c-18.931-4.786-37.976-10.743-44.787-14.063-6.464-3.32-18.007-12.403-24.933-19.824l-5.426-5.86 3.348-0.391c1.847-0.194 7.158-0.097 11.659 0.294 10.043 0.977 19.392 4.492 34.629 13.086 14.659 8.203 45.71 30.859 42.016 30.664-0.577 0-7.965-1.758-16.506-3.906z"/>
    <path d="m533.71 353.56c-17.199-0.88-32.32-2.734-32.32-4.102 0-2.93 22.393-18.456 33.474-23.144 26.78-11.426 85.187-18.652 143.13-17.676l7.504 0.097-4.04 2.051c-10.62 5.566-50.905 22.949-65.796 28.613-36.013 13.477-48.941 15.723-81.954 14.161z"/>
    <path d="m321.55 352.49c-1.962-1.66-1.962-140.53 0-142.19s59.908-1.66 61.87 0c1.963 1.66 1.963 140.53 0 142.19-1.962 1.66-59.908 1.66-61.87 0z"/>
    <path d="m412.74 351.51c-1.961-1.66-1.961-140.53 0-142.19 1.963-1.66 59.908-1.66 61.871 0 1.962 1.66 1.962 140.53 0 142.19-1.963 1.662-59.908 1.662-61.871 0z"/>
    <path d="m492.84 338.23c-2.424-9.082-2.54-22.657-0.232-30.078 6.464-20.802 20.086-45.118 40.402-71.68 8.541-11.132 9.349-11.914 9.696-9.278 1.038 7.032-4.618 47.071-8.888 63.966-3.926 15.429-14.776 31.249-33.36 48.828l-5.656 5.37z"/>
    <path d="m207.62 246.24c13.042-11.816 43.285-31.152 58.406-37.011 7.734-3.125 20.547-5.078 27.242-4.297l3.809 0.488-5.54 5.86c-17.545 18.945-31.051 24.901-85.072 37.597-1.847 0.391-1.732 0 1.155-2.637z"/>
    <path d="m235.2 201.22c-22.624-1.465-49.865-10.546-100.19-33.398l-24.125-10.938 6.233-0.586c7.619-0.782 50.559 0.586 66.256 2.05 32.091 3.028 62.564 9.18 77.916 15.626 10.85 4.59 33.475 20.214 33.475 23.046 0 1.563-18.123 3.614-40.979 4.688-3.808 0.195-12.234 0-18.584-0.488z"/>
    <path d="m321.55 195.26c-1.962-1.66-1.962-141.5 0-143.16s59.908-1.66 61.87 0c1.963 1.66 1.963 141.5 0 143.16-1.962 1.66-59.908 1.66-61.87 0z"/>
    <path d="m293.15 185.1c-23.895-23.34-29.781-34.864-35.321-68.751-2.54-15.233-5.08-39.745-4.503-42.48 0.347-1.3666 3.232 1.66 9.812 10.253 22.624 29.493 38.9 59.864 41.901 78.222 1.154 6.935 0 18.946-2.54 26.172l-1.385 4.395z"/>
   </g>
  </g>
  <g transform="matrix(.9851 0 0 1 291.29 408.27)" fill="#fff" stroke="#000" stroke-width="4" aria-label="s">
   <path d="m18.25-102.2v-153.3h178.85v51.1h-102.2v51.1h102.2v153.3h-178.85v-51.1h102.2v-51.1z" fill="#fff" stroke="#000" stroke-width="4"/>
  </g>
 </g>
</svg>
